# xmcd
#
# Track frame offsets:
#	150
#	15494
#	31965
#	45704
#	62087
#	73775
#	90065
#	106750
#	122536
#	137575
#	150204
#	166384
#	179635
#	191385
#
# Disc length: 2812 seconds
#
# Revision: 1
# Processed by: cddbd v1.5.1PL0 Copyright (c) Steve Scherf et al.
# Submitted via: audiograbber 1.83.01
#
DISCID=a50afa0e
DTITLE=Richie Arndt and The Bluenatics - Travellers
DYEAR=2005
DGENRE=Blues
TTITLE0=Highlights and Lowlights
TTITLE1=Travellers
TTITLE2=24 Trucks Of Fun
TTITLE3=Dites-Moi Julie
TTITLE4=Love Shack (Dancing with You)
TTITLE5=Girl In The Alligator Dress
TTITLE6=A Stranger These Years
TTITLE7=Say "Boss" To Me Next Time
TTITLE8=Move Over
TTITLE9=Rebel Rock
TTITLE10=Drowning In My Soul
TTITLE11=Heading Towards Las Vegas
TTITLE12=My Guitar Wants To Kill Your Mama
TTITLE13=Central Station 3 AM
EXTD=
EXTT0=
EXTT1=
EXTT2=
EXTT3=
EXTT4=
EXTT5=
EXTT6=
EXTT7=
EXTT8=
EXTT9=
EXTT10=
EXTT11=
EXTT12=
EXTT13=
PLAYORDER=
